<svg xmlns="http://www.w3.org/2000/svg" width="23.94" height="24" viewBox="0 0 23.94 24">
  <defs>
    <style>
      .cls-1 {
        fill: #fff;
        fill-rule: evenodd;
      }
    </style>
  </defs>
  <path id="cart" class="cls-1" d="M1424.98,60a3,3,0,1,1,3-3A3,3,0,0,1,1424.98,60Zm0-4a1,1,0,1,0,1,1A0.993,0.993,0,0,0,1424.98,56Zm11.99,4a3,3,0,1,1,2.99-3A3,3,0,0,1,1436.97,60Zm0-4a1,1,0,1,0,.99,1A1,1,0,0,0,1436.97,56Zm-0.64-3h-10.62a2.986,2.986,0,0,1-2.96-2.61l-1.52-11.518a1.007,1.007,0,0,0-.99-0.871h-2.25a1,1,0,0,1,0-2h2.25a3.013,3.013,0,0,1,2.97,2.61l0.31,2.39h16.44a1,1,0,0,1,.98,1.2l-1.68,8.39A2.993,2.993,0,0,1,1436.33,53Zm-0.04-2a1.046,1.046,0,0,0,1.01-.8l1.44-7.2h-14.95l0.94,7.129a1,1,0,0,0,.99.871h10.57Z" transform="translate(-1417 -36)"/>
</svg>
